<?xml version="1.0" encoding="UTF-8" standalone="no"?><!DOCTYPE svg PUBLIC "-//W3C//DTD SVG 1.1//EN" "http://www.w3.org/Graphics/SVG/1.1/DTD/svg11.dtd"><svg width="100%" height="100%" viewBox="0 0 1763 1489" version="1.1" xmlns="http://www.w3.org/2000/svg" xmlns:xlink="http://www.w3.org/1999/xlink" xml:space="preserve" xmlns:serif="http://www.serif.com/" style="fill-rule:evenodd;clip-rule:evenodd;stroke-miterlimit:10;"><g><path d="M240.562,339.374l423.75,83.084l1067.71,-365.584l-1491.46,282.5Z" style="fill:url(#_Linear1);fill-rule:nonzero;stroke:#010101;stroke-width:4.17px;"/><path d="M797.271,443.208l578.625,32.125l365.25,-410.542l-943.875,378.417Z" style="fill:url(#_Linear2);fill-rule:nonzero;stroke:#010101;stroke-width:4.17px;"/><path d="M689.229,439.041l145.5,328.292l-66.542,-328.292l441.5,-183.167l-520.458,183.167Z" style="fill:url(#_Linear3);fill-rule:nonzero;stroke:#010101;stroke-width:4.17px;"/><path d="M784.604,460.583l62.625,302.583l311.042,-281.208l-373.667,-21.375Z" style="fill:url(#_Linear4);fill-rule:nonzero;stroke:#010101;stroke-width:4.17px;"/><path d="M951.979,374.999l-108.583,45.834l-0,-163.375l108.583,-0l-0,117.541Z" style="fill:#fff;fill-rule:nonzero;stroke:#010101;stroke-width:8.33px;"/><path d="M1264.19,253.749l-108.583,43.417l-0,-104.917l108.583,0l0,61.5Z" style="fill:#fff;fill-rule:nonzero;stroke:#010101;stroke-width:8.33px;"/><path d="M1108.1,315.041l-108.625,41.667l-0,-184.209l108.625,0l-0,142.542Z" style="fill:#fff;fill-rule:nonzero;stroke:#010101;stroke-width:8.33px;"/><circle cx="895.937" cy="176.083" r="51.583" style="fill:#fff;stroke:#010101;stroke-width:8.33px;"/><circle cx="1052.98" cy="93.458" r="51.583" style="fill:#fff;stroke:#010101;stroke-width:8.33px;"/><circle cx="1208.85" cy="111.249" r="51.583" style="fill:#fff;stroke:#010101;stroke-width:8.33px;"/><g><g><path d="M20.937,1467.67c6.542,-1.792 14.334,-4.958 23.125,-9.417" style="fill:none;fill-rule:nonzero;stroke:#010101;stroke-width:4.17px;"/><path d="M72.604,1441.62c87.542,-56.75 230.208,-193.708 308.083,-346.416c49.417,-96.917 65.167,-198.5 -7.875,-238.292c-73.333,-39.958 -158.416,76.667 -74.666,186.292c60.833,79.625 199.083,0.583 222.458,-16.209c69.583,-50.083 162.25,-132.041 229.417,-200.166" style="fill:none;fill-rule:nonzero;stroke:#010101;stroke-width:4.17px;stroke-dasharray:49.64,33.09;"/><path d="M761.562,814.916c6,-6.208 11.709,-12.292 17.167,-18.167" style="fill:none;fill-rule:nonzero;stroke:#010101;stroke-width:4.17px;"/></g></g></g><defs><linearGradient id="_Linear1" x1="0" y1="0" x2="1" y2="0" gradientUnits="userSpaceOnUse" gradientTransform="matrix(-1861.16,195.434,-195.434,-1861.16,1472.24,210.875)"><stop offset="0" style="stop-color:#fff;stop-opacity:1"/><stop offset="0.27" style="stop-color:#fff;stop-opacity:1"/><stop offset="0.35" style="stop-color:#eee;stop-opacity:1"/><stop offset="0.49" style="stop-color:#c1c1c1;stop-opacity:1"/><stop offset="0.69" style="stop-color:#797979;stop-opacity:1"/><stop offset="0.94" style="stop-color:#171717;stop-opacity:1"/><stop offset="1" style="stop-color:#000;stop-opacity:1"/></linearGradient><linearGradient id="_Linear2" x1="0" y1="0" x2="1" y2="0" gradientUnits="userSpaceOnUse" gradientTransform="matrix(-1302.2,884.817,-884.817,-1302.2,1623.9,94.177)"><stop offset="0" style="stop-color:#fff;stop-opacity:1"/><stop offset="0.12" style="stop-color:#fff;stop-opacity:1"/><stop offset="0.2" style="stop-color:#f2f2f2;stop-opacity:1"/><stop offset="0.34" style="stop-color:#d0d0d0;stop-opacity:1"/><stop offset="0.54" style="stop-color:#999;stop-opacity:1"/><stop offset="0.78" style="stop-color:#4d4d4d;stop-opacity:1"/><stop offset="1" style="stop-color:#000;stop-opacity:1"/></linearGradient><linearGradient id="_Linear3" x1="0" y1="0" x2="1" y2="0" gradientUnits="userSpaceOnUse" gradientTransform="matrix(324.176,0,0,324.176,504.599,511.588)"><stop offset="0" style="stop-color:#fff;stop-opacity:1"/><stop offset="0.17" style="stop-color:#dadada;stop-opacity:1"/><stop offset="0.54" style="stop-color:#7c7c7c;stop-opacity:1"/><stop offset="1" style="stop-color:#000;stop-opacity:1"/></linearGradient><linearGradient id="_Linear4" x1="0" y1="0" x2="1" y2="0" gradientUnits="userSpaceOnUse" gradientTransform="matrix(481.905,-252.79,252.79,481.905,659.699,693.807)"><stop offset="0" style="stop-color:#fff;stop-opacity:1"/><stop offset="0.09" style="stop-color:#f7f7f7;stop-opacity:1"/><stop offset="0.22" style="stop-color:#e2e2e2;stop-opacity:1"/><stop offset="0.38" style="stop-color:#bfbfbf;stop-opacity:1"/><stop offset="0.56" style="stop-color:#8e8e8e;stop-opacity:1"/><stop offset="0.77" style="stop-color:#505050;stop-opacity:1"/><stop offset="0.99" style="stop-color:#050505;stop-opacity:1"/><stop offset="1" style="stop-color:#000;stop-opacity:1"/></linearGradient></defs></svg>