<?xml version="1.0" standalone="no"?>
<!DOCTYPE svg PUBLIC "-//W3C//DTD SVG 20010904//EN"
 "http://www.w3.org/TR/2001/REC-SVG-20010904/DTD/svg10.dtd">
<svg version="1.0" xmlns="http://www.w3.org/2000/svg"
 width="4702.000000pt" height="4702.000000pt" viewBox="0 0 4702.000000 4702.000000"
 preserveAspectRatio="xMidYMid meet">
<metadata>
Created by potrace 1.11, written by Peter Selinger 2001-2013
</metadata>
<g transform="translate(0.000000,4702.000000) scale(0.100000,-0.100000)"
fill="#000000" stroke="none">
<path d="M25200 34276 c-678 -106 -1230 -663 -1424 -1436 -19 -74 -42 -193
-51 -265 -20 -152 -23 -445 -5 -580 65 -522 281 -973 620 -1298 128 -123 245
-206 405 -287 307 -156 618 -202 947 -140 750 142 1327 848 1429 1749 17 151
7 484 -20 636 -117 675 -491 1217 -1016 1475 -154 75 -227 101 -367 131 -121
26 -396 34 -518 15z m413 -301 c376 -57 716 -289 961 -655 353 -527 402 -1294
122 -1887 -159 -335 -420 -611 -711 -752 -198 -97 -365 -136 -575 -134 -458 2
-872 246 -1152 678 -461 711 -378 1735 190 2327 325 338 737 488 1165 423z"/>
<path d="M45490 33489 c-3127 -703 -13902 -3110 -13907 -3106 -2 3 20 47 50
98 265 460 358 1035 256 1579 -135 718 -604 1306 -1200 1504 -182 61 -251 71
-474 71 -280 0 -419 -32 -660 -151 -558 -275 -936 -850 -1037 -1579 -16 -117
-16 -454 1 -575 59 -432 210 -799 452 -1100 82 -102 237 -256 313 -310 25 -18
46 -36 46 -40 0 -5 -2059 -470 -2082 -470 -5 0 -8 29 -8 65 l0 65 -1800 0
-1800 0 0 -469 0 -469 -22 -5 c-13 -3 -358 -81 -768 -172 -410 -91 -753 -168
-762 -171 -14 -4 -9 13 21 83 77 177 136 385 168 593 24 160 24 510 0 670 -53
344 -168 649 -346 916 -265 398 -628 653 -1061 745 -151 33 -419 33 -570 0
-433 -93 -794 -346 -1061 -745 -550 -823 -475 -2001 176 -2729 58 -65 91 -109
83 -112 -7 -2 -1496 -335 -3308 -740 -1812 -405 -3536 -791 -3830 -856 -2774
-621 -11937 -2670 -12085 -2703 -115 -26 -182 -45 -170 -49 105 -32 13346
-3087 13365 -3084 14 2 1218 487 2675 1077 1458 589 2660 1076 2673 1081 l22
9 0 -353 0 -352 -2348 -974 c-1291 -536 -2348 -975 -2350 -977 -3 -2 4367
-11995 4373 -12002 1 -1 28 7 60 19 l58 21 -6 47 c-3 25 -432 2689 -952 5919
-520 3231 -945 5881 -945 5891 0 13 182 106 722 371 398 194 873 427 1056 516
l332 163 -2 -226 -3 -227 -783 -370 -783 -371 58 -7 c32 -5 859 -60 1838 -123
979 -64 2669 -174 3755 -245 2036 -134 9660 -633 10610 -695 294 -20 812 -53
1150 -75 338 -22 635 -42 660 -44 l45 -5 5716 7587 c3144 4173 5715 7588 5714
7590 -1 1 -218 -99 -481 -224 -264 -124 -1323 -626 -2354 -1114 -1031 -488
-4120 -1951 -6865 -3250 -2744 -1299 -5007 -2371 -5028 -2381 l-37 -19 2 626
3 626 4895 1979 c2692 1088 5046 2040 5230 2114 184 75 1195 483 2245 907
1051 425 1911 772 1911 772 8 4 -32 146 -40 145 -6 -1 -369 -82 -806 -180z
m-14970 -184 c590 -154 1032 -698 1136 -1401 34 -229 18 -543 -40 -773 -108
-423 -352 -789 -670 -1003 -150 -100 -262 -151 -430 -196 -94 -25 -116 -27
-301 -27 -216 0 -275 10 -440 72 -523 195 -915 733 -1000 1372 -17 125 -19
392 -5 511 86 689 504 1246 1072 1425 143 45 218 55 403 51 146 -3 185 -8 275
-31z m-9694 -2339 c512 -102 940 -521 1127 -1101 64 -199 89 -370 89 -600 0
-402 -103 -751 -314 -1072 -133 -201 -371 -414 -577 -518 -161 -80 -389 -135
-566 -135 -175 0 -406 55 -561 133 -287 145 -552 420 -703 730 -132 273 -192
540 -192 862 0 296 49 539 161 796 166 384 496 713 846 845 81 30 204 61 290
73 88 13 308 5 400 -13z m6162 -4188 l-3 -2462 -1540 -698 c-847 -384 -1541
-698 -1542 -698 -2 0 -3 1422 -3 3160 l0 3160 1545 0 1545 0 -2 -2462z m4802
759 l0 -993 -1538 -727 c-846 -400 -1542 -727 -1545 -727 -9 0 -9 3425 0 3433
3 4 699 7 1545 7 l1538 0 0 -993z m-3342 -1543 l-3 -296 -599 -249 c-329 -137
-600 -249 -602 -249 -2 0 -4 135 -4 299 0 229 3 302 13 308 15 10 1179 482
1190 483 4 0 6 -133 5 -296z m-6268 -1847 l0 -2013 -1532 -764 c-843 -420
-1536 -765 -1540 -767 -5 -2 -8 1247 -8 2776 l0 2781 1540 0 1540 0 0 -2013z
m6268 951 l-3 -302 -595 -283 c-327 -155 -598 -282 -602 -283 -5 0 -8 131 -8
290 l0 291 28 15 c51 29 1167 574 1175 574 4 0 6 -136 5 -302z m-4810 -1233
l-3 -166 -597 -248 -598 -248 0 331 0 331 598 242 597 241 3 -158 c1 -87 1
-233 0 -325z m-5 -1346 c-11 -9 -1176 -559 -1185 -559 -5 0 -8 114 -8 253 l1
252 597 292 597 291 3 -261 c1 -143 -1 -264 -5 -268z"/>
<path d="M17084 18985 c2 -11 444 -2532 982 -5602 538 -3071 982 -5583 986
-5583 4 0 2103 2238 4665 4972 2562 2735 4756 5077 4876 5205 191 204 215 233
195 237 -13 3 -97 10 -188 15 -91 6 -1866 126 -3945 266 -2079 141 -4144 280
-4590 310 -445 30 -1143 77 -1550 104 -660 45 -1273 86 -1393 94 -39 2 -42 0
-38 -18z"/>
</g>
</svg>
